<svg width="1571" height="1320" viewBox="0 0 1571 1320" fill="none" xmlns="http://www.w3.org/2000/svg">
<g clip-path="url(#clip0_31_2)">
<path d="M781.666 0.00195312H664.333V1280H781.666V0.00195312Z" fill="#1F1F1F"/>
<path d="M619.883 214.596L600 234.311L675.105 310.055L694.988 290.34L619.883 214.596Z" fill="#1F1F1F"/>
<path opacity="0.6" d="M688.451 231.928C704.451 253.039 726.851 302.461 688.451 331.261" stroke="#343434" stroke-width="4"/>
<path opacity="0.6" d="M685.117 259.928C693.166 270.696 704.435 295.904 685.117 310.594" stroke="#343434" stroke-width="4"/>
<path d="M231 88.002C358.394 88.002 461.667 -6.01825 461.667 -121.998C461.667 -237.978 358.394 -331.998 231 -331.998C103.606 -331.998 0.333008 -237.978 0.333008 -121.998C0.333008 -6.01825 103.606 88.002 231 88.002Z" fill="#151515"/>
<path d="M1163 108.002C1290.39 108.002 1393.67 13.9818 1393.67 -101.998C1393.67 -217.978 1290.39 -311.998 1163 -311.998C1035.61 -311.998 932.333 -217.978 932.333 -101.998C932.333 13.9818 1035.61 108.002 1163 108.002Z" fill="#111111"/>
<path d="M861 164.002C1113.95 164.002 1319 -22.5462 1319 -252.665C1319 -482.784 1113.95 -669.332 861 -669.332C608.054 -669.332 403 -482.784 403 -252.665C403 -22.5462 608.054 164.002 861 164.002Z" fill="#151515"/>
<path fill-rule="evenodd" clip-rule="evenodd" d="M1086.34 215.653C1091.64 218.405 1094.08 237.617 1089.39 246.679C1084.69 255.742 1074.62 251.246 1069.31 248.494C1064 245.743 1063.51 236.151 1068.21 227.088C1072.91 218.026 1081.03 212.902 1086.34 215.653Z" fill="black"/>
<path fill-rule="evenodd" clip-rule="evenodd" d="M1002.13 226.8C997.48 230.552 998.911 249.866 1005.32 257.813C1011.73 265.76 1020.7 259.35 1025.35 255.598C1030.01 251.846 1028.58 242.348 1022.17 234.401C1015.77 226.454 1006.79 223.048 1002.13 226.8Z" fill="black"/>
<path d="M1019.66 288.003C1028.87 288.003 1036.33 280.541 1036.33 271.337C1036.33 262.132 1028.87 254.67 1019.66 254.67C1010.46 254.67 1003 262.132 1003 271.337C1003 280.541 1010.46 288.003 1019.66 288.003Z" fill="#444444"/>
<path d="M1019.66 282.669C1021.51 282.669 1023 277.894 1023 272.003C1023 266.112 1021.51 261.336 1019.66 261.336C1017.82 261.336 1016.33 266.112 1016.33 272.003C1016.33 277.894 1017.82 282.669 1019.66 282.669Z" fill="black"/>
<path d="M1023.67 270.669C1025.51 270.669 1027 269.176 1027 267.335C1027 265.494 1025.51 264.002 1023.67 264.002C1021.82 264.002 1020.33 265.494 1020.33 267.335C1020.33 269.176 1021.82 270.669 1023.67 270.669Z" fill="white"/>
<path d="M1062.33 288.003C1053.13 288.003 1045.67 280.541 1045.67 271.337C1045.67 262.132 1053.13 254.67 1062.33 254.67C1071.53 254.67 1078.99 262.132 1078.99 271.337C1078.99 280.541 1071.53 288.003 1062.33 288.003Z" fill="#444444"/>
<path d="M1062.33 282.669C1060.49 282.669 1058.99 277.894 1058.99 272.003C1058.99 266.112 1060.49 261.336 1062.33 261.336C1064.17 261.336 1065.66 266.112 1065.66 272.003C1065.66 277.894 1064.17 282.669 1062.33 282.669Z" fill="black"/>
<path d="M1058.33 270.669C1056.49 270.669 1054.99 269.176 1054.99 267.335C1054.99 265.494 1056.49 264.002 1058.33 264.002C1060.17 264.002 1061.66 265.494 1061.66 267.335C1061.66 269.176 1060.17 270.669 1058.33 270.669Z" fill="white"/>
<path d="M1030.9 372C1036.42 372 1040.9 367.523 1040.9 362C1040.9 356.477 1036.42 352 1030.9 352C1025.38 352 1020.9 356.477 1020.9 362C1020.9 367.523 1025.38 372 1030.9 372Z" fill="black"/>
<path d="M1082.9 372C1088.42 372 1092.9 367.523 1092.9 362C1092.9 356.477 1088.42 352 1082.9 352C1077.38 352 1072.9 356.477 1072.9 362C1072.9 367.523 1077.38 372 1082.9 372Z" fill="black"/>
<path d="M1059 2096C1543.54 2096 1936.33 1703.21 1936.33 1218.67C1936.33 734.132 1543.54 341.337 1059 341.337C574.462 341.337 181.667 734.132 181.667 1218.67C181.667 1703.21 574.462 2096 1059 2096Z" fill="#181818" stroke="#242424" stroke-width="5.33333"/>
<path d="M1181.31 1096.92L1138.71 977.121L1254.37 904.14C1261.7 918.921 1287.55 996.171 1298.69 1024.43C1300.68 1080.31 1215.77 1104.79 1181.31 1096.92Z" fill="#181818"/>
<path d="M1181.7 1097.38C1216.77 1103.73 1263.78 1086.75 1286.7 1059.47C1298.17 1045.84 1301.44 1032.2 1297.46 1021.19" stroke="white" stroke-width="2.66667" stroke-linecap="round" stroke-linejoin="round"/>
<path d="M1137.75 975.639L1181.7 1097.38" stroke="white" stroke-width="2.66667" stroke-linecap="round" stroke-linejoin="round"/>
<path d="M1253.51 899.443L1297.46 1021.19" stroke="white" stroke-width="2.66667" stroke-linecap="round" stroke-linejoin="round"/>
<path d="M1242.75 937.73C1254.22 924.092 1257.49 910.459 1253.51 899.443C1249.53 888.428 1238.31 880.029 1220.78 876.859L1137.75 975.641C1155.28 978.811 1175.8 976.153 1194.8 969.292C1213.8 962.432 1231.29 951.369 1242.75 937.73Z" fill="white" stroke="white" stroke-width="2.66667" stroke-linecap="round" stroke-linejoin="round"/>
<path d="M1081.26 1016.29L906.463 961.249L808.244 1266.84L879.999 1345.25L983.275 1322.27L1081.26 1016.29Z" fill="#181818"/>
<path d="M879.588 1345.51L808.236 1266.66L906.339 960.31L1010.22 937.575L1081.57 1016.43L983.47 1322.78L879.588 1345.51ZM1081.57 1016.43L977.691 1039.16M906.339 960.31L977.691 1039.16M977.691 1039.16L879.588 1345.51" stroke="white" stroke-width="2.66667" stroke-linejoin="round"/>
<path d="M907.628 960.272L1010.24 937.712L1081.38 1015.91L977.813 1038.97L907.628 960.272Z" fill="white"/>
<path d="M289.971 937.179L197.705 1041.02L378.633 1203.7L455.114 1178.37L471.239 1099.81L289.971 937.179Z" fill="#181818"/>
<path d="M455.168 1178.74L378.506 1203.65L197.016 1040.82L213.496 961.912L290.158 937.003L471.649 1099.84L455.168 1178.74ZM290.158 937.003L273.678 1015.91M197.016 1040.82L273.678 1015.91M273.678 1015.91L455.168 1178.74" stroke="white" stroke-width="2.66667" stroke-linejoin="round"/>
<path d="M197.39 1039.91L213.597 961.942L289.744 936.978L273.582 1015.76L197.39 1039.91Z" fill="white"/>
<path d="M1096.23 1185.8L1040.35 1138.29L1130.29 1004.13L1165.96 1161.26L1096.23 1185.8Z" fill="#181818"/>
<path d="M1040.15 1137.8L1096.55 1186.09L1166.48 1161.14" stroke="white" stroke-width="2.66667" stroke-linecap="round" stroke-linejoin="round"/>
<path d="M1096.55 1186.09L1130.38 1003.01" stroke="white" stroke-width="2.66667" stroke-linejoin="round"/>
<path fill-rule="evenodd" clip-rule="evenodd" d="M1041.39 1135.94L1040.15 1137.8L1042.77 1138.29L1040.6 1139.06L1039.7 1136.55L1041.39 1135.94ZM1128.51 1005.8L1130.37 1003.01L1129.07 1002.77L1128.51 1005.8ZM1130.38 1003.01L1131.13 1006.3L1131.69 1003.25L1130.38 1003.01ZM1165.98 1158.96L1166.48 1161.14L1163.86 1160.66L1165.61 1162.16L1166.48 1161.14L1167.34 1160.13L1165.98 1158.96Z" fill="white"/>
<path d="M1040.15 1137.8L1130.38 1003.01L1166.48 1161.14" stroke="white" stroke-width="2.66667" stroke-linecap="round" stroke-linejoin="round"/>
<path d="M1374.32 1017.23L1304.62 994.383L1337.14 836.174L1429.59 968.147L1374.32 1017.23Z" fill="#181818"/>
<path d="M1304.25 994.008L1374.72 1017.38L1430.02 967.838" stroke="white" stroke-width="2.66667" stroke-linecap="round" stroke-linejoin="round"/>
<path d="M1374.72 1017.38L1336.79 835.1" stroke="white" stroke-width="2.66667" stroke-linejoin="round"/>
<path fill-rule="evenodd" clip-rule="evenodd" d="M1304.7 991.808L1304.25 994.007L1306.84 993.467L1305.13 995.003L1303.35 993.016L1304.7 991.808ZM1336.11 838.413L1336.79 835.099L1335.48 835.372L1336.11 838.413ZM1336.79 835.099L1338.72 837.841L1338.09 834.829L1336.79 835.099ZM1428.74 966.013L1430.02 967.829L1430.43 966.574L1428.74 966.013ZM1430.01 967.839L1427.41 968.381L1429.59 969.105L1430.01 967.839Z" fill="white"/>
<path d="M1304.25 994.009L1336.8 835.101L1430.02 967.839" stroke="white" stroke-width="2.66667" stroke-linecap="round" stroke-linejoin="round"/>
<path d="M587.194 1091.91L505.329 1089.61L486.862 1135.01L454.734 1088.19L372.87 1085.89L378.43 1039.64L411.63 1025.38L402.75 1012.44L408.31 966.182L478.762 996.538L540.77 969.902L535.209 1016.16L533.582 1020.16L592.754 1045.66L587.194 1091.91Z" fill="#181818"/>
<path d="M408.31 966.182L440.438 1013L411.63 1025.38L378.43 1039.64L372.87 1085.89L454.734 1088.19L486.862 1135.01L505.329 1089.61L587.194 1091.91L592.754 1045.66L533.582 1020.16M486.862 1135.01L492.422 1088.76M533.582 1020.16L522.303 1015.3L540.77 969.902M411.63 1025.38L402.75 1012.44L408.31 966.182L478.762 996.538L540.77 969.902L535.209 1016.16L533.582 1020.16" stroke="white" stroke-width="2.66667" stroke-linecap="round" stroke-linejoin="round"/>
<path d="M460.644 1042.58L492.516 1088.07L511.325 1042.78L592.021 1045.01L521.792 1014.56L540.646 968.873L477.658 995.888L408.932 966.01L439.406 1013.3L378.74 1040.59L460.644 1042.58Z" fill="white"/>
<path d="M1641.49 1002.58L1552.26 989.105L1525.98 1036.29L1497.11 980.778L1407.88 967.303L1420.15 917.459L1458.38 906.306L1450.4 890.964L1462.67 841.12L1535.66 883.753L1607.05 862.922L1594.77 912.77L1592.46 916.928L1653.76 952.736L1641.49 1002.58Z" fill="#181818"/>
<path d="M1462.67 841.12L1491.54 896.628L1458.38 906.306L1420.15 917.459L1407.88 967.303L1497.11 980.778L1525.98 1036.29L1552.26 989.105L1641.49 1002.58L1653.76 952.736L1592.46 916.928M1525.98 1036.29L1538.25 986.442M1592.46 916.928L1580.77 910.102L1607.05 862.922M1458.38 906.306L1450.4 890.964L1462.67 841.12L1535.66 883.753L1607.05 862.922L1594.77 912.77L1592.46 916.928" stroke="white" stroke-width="2.66667" stroke-linecap="round" stroke-linejoin="round"/>
<path d="M1509.68 931.68L1538.45 985.703L1565.08 938.68L1653.04 951.926L1580.31 909.218L1607.05 861.777L1534.54 882.891L1463.37 841.012L1490.37 896.813L1420.36 918.543L1509.68 931.68Z" fill="white"/>
<path d="M548.615 1131.81C548.281 1163.87 570.43 1203.01 598.086 1219.23C611.914 1227.35 624.501 1228.19 633.672 1223L857.303 1096.26L787.746 974.749L563.709 1099.37C554.537 1104.56 548.782 1115.78 548.615 1131.81Z" fill="#181818"/>
<path d="M793.529 1075.18L575.636 1199.64" stroke="white" stroke-width="2.66667" stroke-linecap="round" stroke-linejoin="round"/>
<path d="M633.557 1223.42C624.386 1228.61 611.799 1227.76 597.971 1219.65C570.315 1203.43 548.166 1164.29 548.5 1132.23C548.667 1116.2 554.423 1104.97 563.594 1099.78" stroke="white" stroke-width="2.66667" stroke-linecap="round" stroke-linejoin="round"/>
<path d="M852.07 1099.78L633.594 1223.41M563.631 1099.78L782.107 976.145" stroke="white" stroke-width="2.66667" stroke-linecap="round" stroke-linejoin="round"/>
<path d="M782.109 976.143C772.938 981.332 767.182 992.558 767.015 1008.59C766.849 1024.62 772.303 1042.42 781.255 1058.24C790.208 1074.06 802.659 1087.9 816.487 1096.01C830.315 1104.12 842.902 1104.97 852.073 1099.78C861.244 1094.59 867 1083.36 867.167 1067.33C867.5 1035.27 845.351 996.13 817.695 979.909C803.867 971.798 791.281 970.953 782.109 976.143Z" fill="white" stroke="white" stroke-width="2.66667" stroke-linecap="round" stroke-linejoin="round"/>
<path d="M737.667 -186.668L737.67 719.999" stroke="white" stroke-width="2.66667" stroke-linecap="square"/>
<path d="M724.639 751.998L700.333 719.998H775L750.694 751.998" stroke="white" stroke-width="5.33333" stroke-linecap="square"/>
<path d="M644 184.668C896.946 184.668 1102 -1.88013 1102 -231.999C1102 -462.118 896.946 -648.666 644 -648.666C391.054 -648.666 186 -462.118 186 -231.999C186 -1.88013 391.054 184.668 644 184.668Z" fill="#111111"/>
</g>
<defs>
<clipPath id="clip0_31_2">
<rect width="1571" height="1320" fill="white"/>
</clipPath>
</defs>
</svg>
